<svg xmlns="http://www.w3.org/2000/svg" viewBox="0 0 220.17 36.47"><defs><style>.cls-1{fill:#fff;}.cls-2{fill:gray;}.cls-3{fill:#ccc;}</style></defs><title>Asset 1</title><g id="Layer_2" data-name="Layer 2"><g id="Layer_1-2" data-name="Layer 1"><path class="cls-1" d="M177.81,9.79h2.29l3.63,17h-2.25l-.77-4.28h-3.46l-.82,4.28H174.2Zm2.58,11L179,13.15l-1.41,7.66Z"/><path class="cls-1" d="M186.65,11.56h-2.88V9.79h8v1.77H189V26.79h-2.37Z"/><path class="cls-1" d="M193.44,9.79h2.37v15.3h4.35v1.7h-6.72Z"/><path class="cls-1" d="M204.46,9.79h2.29l3.63,17h-2.25l-.78-4.28h-3.46l-.82,4.28h-2.22Zm2.58,11-1.43-7.66-1.4,7.66Z"/><path class="cls-1" d="M212.84,25.65A6,6,0,0,1,211.59,22l2.1-.57a6.48,6.48,0,0,0,.64,2.64,1.86,1.86,0,0,0,1.77,1,1.82,1.82,0,0,0,1.4-.51,2.15,2.15,0,0,0,.47-1.48,3.21,3.21,0,0,0-.44-1.74,7,7,0,0,0-1.41-1.54l-2.85-2.51A4.92,4.92,0,0,1,212,15.7a5.2,5.2,0,0,1-.39-2.13,3.86,3.86,0,0,1,1.07-2.9,4.07,4.07,0,0,1,2.92-1,4,4,0,0,1,3,1.07A5.34,5.34,0,0,1,219.9,14l-2,.55a5.42,5.42,0,0,0-.58-2.3,1.79,1.79,0,0,0-1.69-.81,1.91,1.91,0,0,0-1.38.47,1.85,1.85,0,0,0-.49,1.4,2.84,2.84,0,0,0,.26,1.27,3.27,3.27,0,0,0,.86,1l2.87,2.52a8.54,8.54,0,0,1,1.77,2.13,5.21,5.21,0,0,1,.66,2.63,3.91,3.91,0,0,1-1.13,3A4.07,4.07,0,0,1,216.1,27,4,4,0,0,1,212.84,25.65Z"/><path class="cls-1" d="M1.16,25.58A6.63,6.63,0,0,1,0,21.38V15.25A6.73,6.73,0,0,1,1.15,11c.77-1,2.09-1.44,4-1.44a4.81,4.81,0,0,1,3.78,1.28A5.4,5.4,0,0,1,10,14.47v1.47H6.32v-1.7a4.22,4.22,0,0,0-.21-1.51c-.14-.35-.48-.52-1-.52a1,1,0,0,0-1,.55A3.8,3.8,0,0,0,3.8,14.3v8a3.69,3.69,0,0,0,.26,1.54,1,1,0,0,0,1,.54,1,1,0,0,0,1-.54,4.37,4.37,0,0,0,.22-1.54V20.51H10V22a5.67,5.67,0,0,1-1.11,3.73A4.69,4.69,0,0,1,5.1,27,4.77,4.77,0,0,1,1.16,25.58Z"/><path class="cls-1" d="M13,25.62a6.37,6.37,0,0,1-1.18-4.18V15.12A6.29,6.29,0,0,1,13,11a4.87,4.87,0,0,1,3.92-1.4,4.91,4.91,0,0,1,4,1.41,6.3,6.3,0,0,1,1.18,4.15v6.32a6.37,6.37,0,0,1-1.18,4.18,4.88,4.88,0,0,1-4,1.42A4.81,4.81,0,0,1,13,25.62Zm5-1.78a3.45,3.45,0,0,0,.25-1.46V14.2A3.44,3.44,0,0,0,18,12.73a1,1,0,0,0-1.05-.52,1,1,0,0,0-1,.53,3.62,3.62,0,0,0-.25,1.46v8.18a3.84,3.84,0,0,0,.23,1.46,1,1,0,0,0,1,.54A1,1,0,0,0,18,23.84Z"/><path class="cls-1" d="M24.57,9.79h4l1.87,9.88,2-9.88h3.88l.3,17H34l-.31-11.31-2,11.31H29.33L27.23,15.4,27,26.79h-2.7Z"/><path class="cls-1" d="M39.34,9.79h4l1.87,9.88,2-9.88h3.88l.3,17H48.76l-.31-11.31-2,11.31H44.1L42,15.4l-.25,11.39h-2.7Z"/><path class="cls-1" d="M55.77,26.42A3.43,3.43,0,0,1,54.2,24.6a9,9,0,0,1-.45-3.08V9.79h3.72v12.3a4.08,4.08,0,0,0,.26,1.63,1,1,0,0,0,1.06.61,1,1,0,0,0,1.05-.61,4.29,4.29,0,0,0,.25-1.63V9.79h3.74V21.52a8.67,8.67,0,0,1-.47,3.08,3.41,3.41,0,0,1-1.56,1.82,6.19,6.19,0,0,1-3,.62A6.26,6.26,0,0,1,55.77,26.42Z"/><path class="cls-1" d="M66.22,9.79h2.64L72.34,18V9.79h3.11v17H72.91L69.43,18v8.81H66.22Z"/><path class="cls-1" d="M78,9.79h3.75v17H78Z"/><path class="cls-1" d="M85.84,12.58H83.27V9.79h8.88v2.79H89.61V26.79H85.84Z"/><path class="cls-1" d="M95.78,19.84l-3.23-10h3.54l1.62,5.37,1.45-5.37h3.4L99.39,19.84v7H95.78Z"/><path class="cls-2" d="M168.57,36.47H132.1V0h36.47Zm-35.25-1.22h34v-34h-34Z"/><circle class="cls-3" cx="113.73" cy="13.15" r="3.67"/><circle class="cls-3" cx="132.71" cy="14.72" r="4.13"/><circle class="cls-3" cx="125.05" cy="24.38" r="4.39"/><circle class="cls-3" cx="126.38" cy="7.64" r="2.95"/><circle class="cls-3" cx="115.41" cy="21.95" r="2.61"/><circle class="cls-3" cx="118.79" cy="30.64" r="1.87"/><circle class="cls-3" cx="122.47" cy="13.15" r="1.87"/><circle class="cls-3" cx="144.04" cy="17.7" r="1.87"/><circle class="cls-3" cx="151.57" cy="26.79" r="1.87"/><circle class="cls-3" cx="120.75" cy="1.87" r="1.87"/><circle class="cls-3" cx="106.49" cy="25.65" r="1.27"/><circle class="cls-3" cx="110.69" cy="27.04" r="1.27"/><circle class="cls-3" cx="125.6" cy="16.98" r="1.27"/><circle class="cls-3" cx="159.49" cy="11.87" r="1.27"/><circle class="cls-3" cx="120.16" cy="17.7" r="1.27"/><circle class="cls-3" cx="121.43" cy="34.77" r="0.9"/><circle class="cls-3" cx="138.67" cy="23.76" r="2.95"/><circle class="cls-3" cx="132.71" cy="29.09" r="2.37"/></g></g></svg>