<svg xmlns="http://www.w3.org/2000/svg" viewBox="0 0 354.43 105.03"><defs><style>.cls-1{fill:#fff;}.cls-2{fill:none;stroke:#a32122;stroke-miterlimit:10;stroke-width:1.5px;}.cls-3{fill:#a22122;}</style></defs><title>Asset 1</title><g id="Layer_2" data-name="Layer 2"><g id="Layer_1-2" data-name="Layer 1"><path class="cls-1" d="M249.56,46.83h-1.09l-3-9.25h1.45L249,44.31l2.13-6.73h1.48Z"/><path class="cls-1" d="M254.27,46.83V37.58h1.4v9.25Z"/><path class="cls-1" d="M263.89,45.92a3.5,3.5,0,0,1-4.88,0c-.91-.91-.89-1.93-.89-3.71s0-2.81.89-3.72a3.5,3.5,0,0,1,4.88,0c.91.91.88,1.94.88,3.72S264.8,45,263.89,45.92Zm-1.07-6.59a1.94,1.94,0,0,0-2.75,0c-.46.5-.55,1-.55,2.88s.09,2.38.55,2.87a1.94,1.94,0,0,0,2.75,0c.46-.49.55-1,.55-2.87S263.28,39.83,262.82,39.33Z"/><path class="cls-1" d="M267.21,46.83V37.58h1.41v8h4.46v1.26Z"/><path class="cls-1" d="M275,46.83V37.58H281v1.26h-4.51v2.7h3.84v1.25h-3.84v2.78H281v1.26Z"/><path class="cls-1" d="M288.93,46.83l-4.28-6.51v6.51h-1.41V37.58h1.29l4.28,6.5v-6.5h1.4v9.25Z"/><path class="cls-1" d="M296,46.91a3.35,3.35,0,0,1-2.43-1c-.91-.91-.89-1.93-.89-3.71s0-2.81.89-3.72a3.35,3.35,0,0,1,2.43-1,3.19,3.19,0,0,1,3.31,2.85h-1.43a1.91,1.91,0,0,0-3.24-1c-.46.49-.56,1-.56,2.89s.1,2.39.56,2.88a1.84,1.84,0,0,0,1.36.56,1.87,1.87,0,0,0,1.89-1.58h1.42A3.2,3.2,0,0,1,296,46.91Z"/><path class="cls-1" d="M301.52,46.83V37.58h5.92v1.26h-4.51v2.7h3.84v1.25h-3.84v2.78h4.51v1.26Z"/><path class="cls-1" d="M250.08,59.2H248v3.63h-1.41V53.58h3.51a2.81,2.81,0,1,1,0,5.62ZM250,54.84h-2v3.08h2a1.54,1.54,0,1,0,0-3.08Z"/><path class="cls-1" d="M260.22,62.83l-2-3.9h-1.75v3.9h-1.41V53.58h3.59a2.64,2.64,0,0,1,2.87,2.7,2.43,2.43,0,0,1-1.84,2.46l2.13,4.09Zm-1.62-8h-2.08v2.9h2.08a1.41,1.41,0,0,0,1.57-1.44A1.42,1.42,0,0,0,258.6,54.84Z"/><path class="cls-1" d="M264,62.83V53.58h5.92v1.26H265.4v2.7h3.84v1.25H265.4v2.78h4.51v1.26Z"/><path class="cls-1" d="M275.18,62.83h-1.09l-3-9.25h1.46l2.13,6.73,2.13-6.73h1.48Z"/><path class="cls-1" d="M279.89,62.83V53.58h5.92v1.26h-4.52v2.7h3.85v1.25h-3.85v2.78h4.52v1.26Z"/><path class="cls-1" d="M293.77,62.83l-4.27-6.51v6.51h-1.41V53.58h1.29l4.28,6.5v-6.5h1.4v9.25Z"/><path class="cls-1" d="M301,54.84v8h-1.41v-8H297V53.58h6.5v1.26Z"/><path class="cls-1" d="M305.49,62.83V53.58h1.4v9.25Z"/><path class="cls-1" d="M315.11,61.92a3.35,3.35,0,0,1-2.45,1,3.3,3.3,0,0,1-2.43-1c-.91-.91-.9-1.93-.9-3.71s0-2.81.9-3.72a3.3,3.3,0,0,1,2.43-1,3.35,3.35,0,0,1,2.45,1c.91.91.88,1.94.88,3.72S316,61,315.11,61.92ZM314,55.33a1.94,1.94,0,0,0-2.75,0c-.46.5-.55,1-.55,2.88s.09,2.38.55,2.87a1.94,1.94,0,0,0,2.75,0c.46-.49.55-1,.55-2.87S314.5,55.83,314,55.33Z"/><path class="cls-1" d="M324.12,62.83l-4.28-6.51v6.51h-1.41V53.58h1.29l4.28,6.5v-6.5h1.4v9.25Z"/><path class="cls-1" d="M249.7,70.84v8h-1.4v-8h-2.55V69.58h6.5v1.26Z"/><path class="cls-1" d="M259.38,78.83v-4h-3.76v4h-1.41V69.58h1.41v4h3.76v-4h1.4v9.25Z"/><path class="cls-1" d="M268.67,78.83l-1.95-3.9H265v3.9h-1.41V69.58h3.59a2.64,2.64,0,0,1,2.87,2.7,2.43,2.43,0,0,1-1.84,2.46l2.13,4.09Zm-1.62-8H265v2.9h2.08a1.41,1.41,0,0,0,1.57-1.44A1.42,1.42,0,0,0,267.05,70.84Z"/><path class="cls-1" d="M277.88,77.92a3.35,3.35,0,0,1-2.45,1,3.3,3.3,0,0,1-2.43-1c-.91-.91-.9-1.93-.9-3.71s0-2.81.9-3.72a3.3,3.3,0,0,1,2.43-1,3.35,3.35,0,0,1,2.45,1c.91.91.88,1.94.88,3.72S278.79,77,277.88,77.92Zm-1.07-6.59a2,2,0,0,0-2.76,0c-.45.5-.54,1-.54,2.88s.09,2.38.54,2.87a2,2,0,0,0,2.76,0c.45-.49.55-1,.55-2.87S277.26,71.83,276.81,71.33Z"/><path class="cls-1" d="M284.37,78.91a3.13,3.13,0,0,1-3.31-3.2V69.58h1.4v6.07a1.92,1.92,0,1,0,3.84,0V69.58h1.4v6.13A3.14,3.14,0,0,1,284.37,78.91Z"/><path class="cls-1" d="M295.88,77.86a3.55,3.55,0,0,1-5,.06C290,77,290,76,290,74.21s0-2.81.9-3.72a3.3,3.3,0,0,1,2.43-1,3.26,3.26,0,0,1,3.37,2.87h-1.42a1.89,1.89,0,0,0-1.95-1.61,1.85,1.85,0,0,0-1.36.57c-.46.5-.56,1-.56,2.88s.1,2.39.56,2.88a1.84,1.84,0,0,0,1.36.56,2,2,0,0,0,1.51-.65,2.08,2.08,0,0,0,.47-1.45V75h-2v-1.2h3.38v1.42A3.47,3.47,0,0,1,295.88,77.86Z"/><path class="cls-1" d="M304.3,78.83v-4h-3.75v4h-1.41V69.58h1.41v4h3.75v-4h1.41v9.25Z"/><path class="cls-1" d="M315.15,78.91a3.14,3.14,0,0,1-3.32-3.2V69.58h1.4v6.07a1.92,1.92,0,1,0,3.84,0V69.58h1.4v6.13A3.14,3.14,0,0,1,315.15,78.91Z"/><path class="cls-1" d="M326.22,78.83l-2-3.9h-1.75v3.9h-1.41V69.58h3.59a2.64,2.64,0,0,1,2.87,2.7,2.43,2.43,0,0,1-1.84,2.46l2.13,4.09Zm-1.62-8h-2.08v2.9h2.08a1.41,1.41,0,0,0,1.57-1.44A1.42,1.42,0,0,0,324.6,70.84Z"/><path class="cls-1" d="M333.74,78.83H330V69.58h3.6a2.48,2.48,0,0,1,2.8,2.53,2.12,2.12,0,0,1-1.25,2,2.19,2.19,0,0,1,1.39,2.14A2.51,2.51,0,0,1,333.74,78.83Zm-.26-8H331.4v2.65h2.08c.89,0,1.5-.47,1.5-1.32A1.32,1.32,0,0,0,333.48,70.84Zm.13,3.91H331.4v2.82h2.21a1.41,1.41,0,1,0,0-2.82Z"/><path class="cls-1" d="M344.29,78.83,343.66,77H340l-.64,1.85h-1.49l3.39-9.25h1.13l3.4,9.25Zm-2.43-7.16-1.44,4.11h2.84Z"/><path class="cls-1" d="M353.14,78.83l-4.27-6.51v6.51h-1.41V69.58h1.29l4.28,6.5v-6.5h1.4v9.25Z"/><path class="cls-1" d="M249.74,94.91a3.13,3.13,0,0,1-3.31-3.2V85.58h1.4v6.07a1.92,1.92,0,1,0,3.84,0V85.58h1.4v6.13A3.14,3.14,0,0,1,249.74,94.91Z"/><path class="cls-1" d="M259.22,91.2h-2.11v3.63h-1.4V85.58h3.51a2.81,2.81,0,1,1,0,5.62Zm-.08-4.36h-2v3.08h2a1.54,1.54,0,1,0,0-3.08Z"/><path class="cls-1" d="M269.79,93.86a3.55,3.55,0,0,1-5,.06c-.91-.91-.9-1.93-.9-3.71s0-2.81.9-3.72a3.3,3.3,0,0,1,2.43-1,3.26,3.26,0,0,1,3.37,2.87h-1.42a1.89,1.89,0,0,0-1.95-1.61,1.85,1.85,0,0,0-1.36.57c-.46.5-.56,1-.56,2.88s.1,2.39.56,2.88a1.84,1.84,0,0,0,1.36.56,2,2,0,0,0,1.51-.65,2.08,2.08,0,0,0,.47-1.45V91h-2v-1.2h3.38v1.42A3.47,3.47,0,0,1,269.79,93.86Z"/><path class="cls-1" d="M278.16,94.83l-2-3.9h-1.75v3.9h-1.41V85.58h3.59a2.65,2.65,0,0,1,2.87,2.7,2.43,2.43,0,0,1-1.84,2.46l2.13,4.09Zm-1.62-8h-2.08v2.9h2.08a1.41,1.41,0,0,0,1.57-1.44A1.42,1.42,0,0,0,276.54,86.84Z"/><path class="cls-1" d="M287.25,94.83,286.61,93H283l-.64,1.85h-1.49l3.39-9.25h1.13l3.39,9.25Zm-2.43-7.16-1.45,4.11h2.85Z"/><path class="cls-1" d="M296.06,94a3.27,3.27,0,0,1-2.39.87h-3.25V85.58h3.25a3.27,3.27,0,0,1,2.39.87c1,1,.94,2.35.94,3.69S297.06,93,296.06,94Zm-1-6.5a2,2,0,0,0-1.57-.62h-1.71v6.73h1.71A2,2,0,0,0,295.1,93c.48-.53.49-1.53.49-2.81S295.58,88,295.1,87.46Z"/><path class="cls-1" d="M299.44,94.83V85.58h1.41v9.25Z"/><path class="cls-1" d="M309.31,94.83,305,88.32v6.51h-1.4V85.58h1.29l4.27,6.5v-6.5h1.41v9.25Z"/><path class="cls-1" d="M318.92,93.86a3.38,3.38,0,0,1-2.55,1,3.33,3.33,0,0,1-2.43-1C313,93,313,92,313,90.21s0-2.81.9-3.72a3.28,3.28,0,0,1,2.43-1,3.25,3.25,0,0,1,3.36,2.87h-1.41a1.9,1.9,0,0,0-1.95-1.61,1.87,1.87,0,0,0-1.37.57c-.45.5-.56,1-.56,2.88s.11,2.39.56,2.88a1.87,1.87,0,0,0,1.37.56,1.93,1.93,0,0,0,1.5-.65,2.08,2.08,0,0,0,.47-1.45V91h-2v-1.2h3.38v1.42A3.47,3.47,0,0,1,318.92,93.86Z"/><line class="cls-2" x1="232.33" y1="37.09" x2="232.33" y2="96.41"/><path class="cls-3" d="M111.57,81.23c-1.32-2.1-2.79-4.12-4.19-6.18L84.93,43.25,77.57,32.57h0q-10-14.52-20.06-29A8.55,8.55,0,0,0,50.41,0c-5-.15-8,2.4-10.08,6.81Q24.69,40.53,8.86,74.16C6.23,79.8,3.42,85.37,1,91.07c-3.06,7.05,1.62,14,9.29,14,1.25,0,2.5-.06,3.74-.17,7-.65,13.9-1.35,20.86-2q34.47-3.08,68.94-6.11C112,96.05,116,88.2,111.57,81.23Z"/><path class="cls-1" d="M154.77,37.53h17.32c.08,1.07.22,2,.22,3,0,11,.11,22-.06,33A35.49,35.49,0,0,1,170.86,83a17.84,17.84,0,0,1-11.78,12.13,26,26,0,0,1-16.2.29c-7.28-2.17-12.15-8.9-12.34-17.85-.29-13.22-.08-26.46-.08-39.95h17c.06,1,.18,2.09.18,3.16,0,10.74,0,21.48,0,32.22a15.15,15.15,0,0,0,.51,4,2.68,2.68,0,0,0,3.44,2.09,5.31,5.31,0,0,0,2.75-2.54,9,9,0,0,0,.35-3.67q0-15.74,0-31.47Z"/><path class="cls-1" d="M204.05,37.55h17c.09,1,.23,2,.23,2.94,0,11.73,0,23.47,0,35.21-.05,12.41-8.25,20.61-20.67,20.69a30.42,30.42,0,0,1-6.69-.5c-8.77-2-14-9-14.11-19.09-.11-12.11,0-24.22,0-36.33V37.63h17.07c.06,1.17.17,2.25.18,3.33,0,10.74,0,21.48,0,32.22a15.17,15.17,0,0,0,.31,3.7,2.78,2.78,0,0,0,3.34,2.3,5.23,5.23,0,0,0,2.94-2.35c.55-1,.37-2.43.37-3.67q0-15.73,0-31.46Z"/><path class="cls-1" d="M108.05,75.31H99V95.25H82c-.11-1-.3-2-.31-2.9,0-11.84.06-23.68,0-35.52A19.5,19.5,0,0,1,85,45.24a34.94,34.94,0,0,1,3.55-4c9.63-7.81,23.48-7.09,31,1.78,5.57,6.62,6.32,14.17,3.15,22-2,5-6,8.08-11.34,9.38ZM99,60.05a36.08,36.08,0,0,0,4.48-.41c2.41-.52,3.43-2,3.11-4.26-.28-2-1.52-2.69-3.38-2.75-2.45-.08-3.86.9-4.18,3.22A33.57,33.57,0,0,0,99,60.05Z"/><path class="cls-1" d="M54.32,54.22c1.66-5.1,3.49-10.75,4.84-15.67.74-2.67.74-2.65.74-2.65,5.1,0,13.19.05,19,.05L54,96.38C45.6,75.92,37.55,56.28,29.23,36H48.84s0,0,2.07,7.16C51.81,46.22,53.92,53.66,54.32,54.22Z"/><path class="cls-1" d="M17.11,96.59l-2.3-3.51v3.51h-.76v-5h.7l2.3,3.51V91.6h.76v5Z"/><path class="cls-1" d="M21,94.63H19.86v2h-.75v-5H21a1.52,1.52,0,1,1,0,3ZM21,92.28H19.86v1.66H21a.8.8,0,0,0,.89-.82A.81.81,0,0,0,21,92.28Z"/><path class="cls-1" d="M25.12,96.63a1.81,1.81,0,0,1-1.31-.53c-.49-.49-.48-1-.48-2s0-1.52.48-2a1.81,1.81,0,0,1,1.31-.53A1.72,1.72,0,0,1,26.9,93.1h-.77a1,1,0,0,0-1-.86,1,1,0,0,0-.74.3c-.24.27-.3.56-.3,1.56s.06,1.29.3,1.55a1,1,0,0,0,1.76-.55h.76A1.73,1.73,0,0,1,25.12,96.63Z"/></g></g></svg>